<?xml version="1.0" encoding="UTF-8" standalone="no"?>
<svg
   xmlns:dc="http://purl.org/dc/elements/1.1/"
   xmlns:cc="http://creativecommons.org/ns#"
   xmlns:rdf="http://www.w3.org/1999/02/22-rdf-syntax-ns#"
   xmlns:svg="http://www.w3.org/2000/svg"
   xmlns="http://www.w3.org/2000/svg"
   xmlns:sodipodi="http://sodipodi.sourceforge.net/DTD/sodipodi-0.dtd"
   xmlns:inkscape="http://www.inkscape.org/namespaces/inkscape"
   width="210mm"
   height="297mm"
   viewBox="0 0 210 297"
   version="1.1"
   id="svg8"
   sodipodi:docname="stack of books.svg"
   inkscape:version="1.0.2-2 (e86c870879, 2021-01-15)">
  <defs
     id="defs2" />
  <sodipodi:namedview
     id="base"
     pagecolor="#ffffff"
     bordercolor="#666666"
     borderopacity="1.0"
     inkscape:pageopacity="0.0"
     inkscape:pageshadow="2"
     inkscape:zoom="0.35"
     inkscape:cx="68.571429"
     inkscape:cy="582.85714"
     inkscape:document-units="mm"
     inkscape:current-layer="layer1"
     inkscape:document-rotation="0"
     showgrid="false"
     inkscape:window-width="1267"
     inkscape:window-height="1040"
     inkscape:window-x="182"
     inkscape:window-y="0"
     inkscape:window-maximized="0" />
  <metadata
     id="metadata5">
    <rdf:RDF>
      <cc:Work
         rdf:about="">
        <dc:format>image/svg+xml</dc:format>
        <dc:type
           rdf:resource="http://purl.org/dc/dcmitype/StillImage" />
        <dc:title></dc:title>
      </cc:Work>
    </rdf:RDF>
  </metadata>
  <g
     inkscape:label="Layer 1"
     inkscape:groupmode="layer"
     id="layer1">
    <path
       id="path1703"
       style="fill:#26bcff;stroke-width:0.264583"
       d="m 130.96195,82.921414 -42.167153,2.386097 c -23.191961,1.313142 -42.488304,2.490082 -42.88005,2.615991 -0.391868,0.126029 -0.710022,0.745683 -0.710022,1.376358 0,1.100148 0.581398,1.395487 3.692674,1.865243 0.826691,0.124813 1.239105,0.782681 1.527676,2.44429 0.407753,2.347926 0.09442,5.890176 -0.622734,7.050657 -0.234228,0.37931 -3.178382,0.90466 -6.896424,1.23088 -5.450082,0.47831 -6.70803,0.773 -7.850849,1.83906 -4.061199,3.78851 -5.088606,11.39444 -2.27263,16.82202 l 1.510251,2.90992 -2.380303,0.28812 c -1.308805,0.15886 -4.429927,0.44447 -6.937152,0.63437 -5.308773,0.4024 -6.330344,1.08908 -8.336853,5.60152 -1.046372,2.35323 -1.306495,3.95215 -1.306495,8.06331 0,6.00283 1.437064,10.04466 4.539384,12.76856 l 1.876911,1.64699 -2.374507,0.32865 c -1.306658,0.18195 -4.42701,0.49954 -6.934234,0.70414 -5.136222,0.41923 -5.9856468,0.84914 -5.9856468,3.03214 0,2.51001 1.2867608,3.71589 3.9574578,3.71589 2.031999,0 2.411587,0.19775 2.761472,1.43747 0.553356,1.96015 0.516196,20.29675 -0.0466,22.95027 -0.401594,1.89373 -0.649885,2.13587 -2.164958,2.13587 -2.1186798,0 -4.5044929,2.24316 -4.5044929,4.23386 0,0.91419 0.5309064,1.78558 1.4607711,2.39485 3.8884458,2.5478 43.5571258,14.95383 60.6477848,18.96661 3.917582,0.91981 8.15328,1.69115 9.410539,1.71392 3.103575,0.0563 109.492773,-20.05596 114.812413,-21.70481 3.34534,-1.03693 5.51318,-3.11087 7.59477,-7.2718 2.60988,-5.21679 3.43061,-10.35847 3.09033,-19.35364 -0.31487,-8.31964 -1.75117,-13.74912 -4.44922,-16.82202 -1.63117,-1.85792 -1.8731,-1.93767 -6.95461,-2.28139 -2.89549,-0.19573 -7.09909,-0.65381 -9.34364,-1.01845 -4.74095,-0.7704 -4.75186,-0.78989 -4.75186,-8.46775 0,-6.01445 0.56163,-7.37363 3.04957,-7.37363 2.15669,0 3.01227,-0.73442 3.30562,-2.83713 0.17993,-1.29049 0.71428,-1.53639 6.18641,-2.84881 3.29432,-0.79005 6.30749,-1.64373 6.69567,-1.89725 1.87646,-1.22561 -0.139,-3.81193 -2.97102,-3.81193 -2.23604,0 -2.57207,-0.78759 -2.58398,-6.08749 -0.0122,-5.26979 0.56563,-6.34246 3.52681,-6.55594 2.30176,-0.16615 2.45012,-0.28164 2.45012,-1.88854 v -1.70809 l -7.40861,-0.4976 c -4.07424,-0.27313 -7.47434,-0.55201 -7.55405,-0.61981 -0.0794,-0.0681 0.28164,-0.97696 0.80315,-2.022351 1.96161,-3.93209 0.65685,-11.488658 -2.31044,-13.379632 -0.88399,-0.563365 -7.60105,-1.01764 -25.6972,-1.737226 z m 2.17659,2.208602 c 6.73481,-0.08429 11.72936,0.216804 20.90166,0.826407 0.7835,0.05228 -11.65151,1.072024 -27.63513,2.266795 -15.98367,1.194689 -30.728193,2.15515 -32.765297,2.132943 C 89.02315,90.305911 70.297022,88.971454 69.996941,88.671332 69.875369,88.54976 84.183484,87.62257 101.79326,86.61113 c 16.13498,-0.926745 24.61043,-1.396743 31.34528,-1.481114 z m 45.17882,1.353099 c 2.86671,0 3.73562,0.940198 4.79262,5.1825 0.6404,2.57036 0.19614,5.870034 -1.04759,7.792654 -0.25895,0.39997 -2.2131,0.887151 -4.36772,1.088321 -3.67959,0.34364 -3.87767,0.30231 -3.48021,-0.724571 1.18622,-3.06419 1.05241,-6.374601 -0.38417,-9.51242 l -1.43746,-3.139764 1.72263,-0.343238 c 0.94705,-0.189248 2.83798,-0.343239 4.20186,-0.343239 z m -8.92457,0.613979 c 0.0365,-0.01216 0.0822,-0.0081 0.1394,0.01216 0.27475,0.08672 0.7961,0.509509 1.53935,1.3007 2.66506,2.836766 3.22595,7.967435 1.2716,11.619176 -0.37364,0.69779 -0.92557,1.26869 -1.22796,1.26869 -0.71578,0 -0.70998,-0.049 0.36391,-2.618911 1.20737,-2.88973 0.77283,-6.47112 -1.13776,-9.358176 -0.90863,-1.372955 -1.1974,-2.147897 -0.94863,-2.22315 z m -7.45513,0.567419 c 0.71601,-0.02836 1.69434,0.0081 2.98844,0.0697 l 3.64607,0.171822 1.28036,2.54325 c 1.50988,2.994242 1.5866,5.647354 0.25611,9.032284 l -0.96901,2.458841 -3.89339,0.21842 c -3.49277,0.19533 -3.85177,0.11874 -3.47733,-0.74787 0.22978,-0.53163 0.52662,-2.507671 0.66054,-4.388061 0.20101,-2.823396 -0.003,-3.895015 -1.16684,-6.163146 -1.24673,-2.429458 -1.47305,-3.1101 0.67509,-3.195079 z m -4.76932,0.52669 c 0.99835,0 3.56623,4.2622 4.06221,6.742196 0.20019,1.00029 0.0405,2.96376 -0.35216,4.36484 -0.39226,1.401161 -1.10918,2.872961 -1.59462,3.270701 -0.76768,0.62901 -0.82742,0.53792 -0.45683,-0.70127 0.69507,-2.325151 1.07503,-6.675811 0.71003,-8.130222 -0.18723,-0.745034 -0.97854,-2.298768 -1.76049,-3.45111 -1.03912,-1.531201 -1.20275,-2.095135 -0.60819,-2.095135 z m -1.13192,0.28529 1.28032,2.543249 c 1.6276,3.227661 1.66756,7.381697 0.10171,10.833498 -0.69968,1.54239 -1.31906,2.29022 -1.56553,1.89142 -0.29541,-0.47814 -1.49923,-0.52004 -4.38519,-0.14831 -2.1885,0.28164 -4.26341,0.52207 -4.60924,0.53252 -0.43774,0.0122 -0.39065,-0.89153 0.15723,-2.9739 0.91459,-3.477201 0.56268,-6.71297 -1.03592,-9.486234 -0.61377,-1.064608 -0.91223,-2.127433 -0.66053,-2.362837 0.25165,-0.235445 2.76633,-0.518262 5.587,-0.628528 z m -13.87726,0.864257 c 0.19654,0.001 0.59408,0.316492 1.1814,0.986437 2.68378,3.060904 3.49572,8.017482 1.92634,11.773373 -0.98185,2.34995 -2.4427,3.49301 -1.81863,1.42296 1.78151,-5.909741 1.69998,-7.694461 -0.53545,-11.770494 -0.84898,-1.54802 -1.08142,-2.41564 -0.75366,-2.412276 z m -1.30071,0.04093 1.17269,2.423906 c 1.69934,3.510323 1.95387,6.966373 0.75946,10.271884 -0.99944,2.76589 -1.00831,2.77216 -3.84979,2.96518 -1.56702,0.10658 -3.97589,0.35418 -5.35128,0.54995 -2.26821,0.32338 -2.46029,0.26017 -2.06892,-0.68672 0.23748,-0.57414 0.55118,-2.83737 0.6984,-5.031181 0.23382,-3.48551 0.0867,-4.32821 -1.17852,-6.675247 l -1.4491,-2.685854 1.82447,-0.276374 c 1.00371,-0.15156 3.53934,-0.404835 5.63353,-0.56454 z m -13.99656,1.088274 c 0.50545,0 1.62566,1.209481 2.4909,2.685813 1.79363,3.060742 2.15559,7.699943 0.84386,10.807323 -0.42043,0.99604 -1.12701,1.94896 -1.56844,2.1184 -0.99292,0.38092 -0.99271,0.36836 0.0523,-2.13295 1.60094,-3.83159 0.75739,-9.613563 -1.81868,-12.460136 -0.84448,-0.935659 -0.84464,-1.01845 0,-1.01845 z m -2.94772,0.416101 c 2.06207,0.01621 2.14822,0.567135 2.98848,2.15041 1.4111,2.658944 1.67722,9.153335 0.48885,11.965455 -0.58845,1.39253 -1.06323,1.71223 -2.5636,1.72264 -1.01297,0.008 -3.73797,0.21762 -6.05254,0.4685 -3.94616,0.42806 -4.17816,0.39268 -3.75667,-0.58196 0.2472,-0.57168 0.5645,-2.7507 0.70711,-4.84206 0.21801,-3.200591 0.0324,-4.299201 -1.1756,-6.937151 l -1.4346,-3.133975 4.36485,-0.363906 c 3.24796,-0.271917 5.19652,-0.456909 6.43372,-0.448115 z m -67.005893,0.858418 c 0.797676,-0.09645 7.608028,0.355396 20.20623,1.35018 19.079417,1.506886 19.088008,1.510136 20.363381,3.003036 0.701877,0.82147 1.661077,2.61757 2.130027,3.992351 l 0.852635,2.49957 -3.552997,-0.35499 c -9.388412,-0.93741 -11.775766,-0.84465 -4.408491,0.17182 8.939128,1.23319 7.978908,1.02599 7.978908,1.74306 0,0.35945 -1.544335,0.46323 -4.132041,0.27921 -4.746502,-0.33716 -4.566656,0.0203 0.28529,0.56742 3.612561,0.40743 4.198501,1.34187 2.278466,3.62864 l -0.998109,1.18724 -8.831489,-1.39383 c -11.005849,-1.73495 -13.53986,-1.73568 -3.989432,0 3.917542,0.71197 6.35547,1.30192 5.415271,1.31233 -1.725434,0.0203 -21.147806,-3.21363 -33.440375,-5.56371 -4.671574,-0.89311 -6.573895,-1.48164 -6.384282,-1.97579 0.211129,-0.54959 1.920353,-0.47956 7.795573,0.31447 10.720154,1.44845 11.982884,1.18687 1.827392,-0.37809 -4.701075,-0.72449 -8.610513,-1.33551 -8.688886,-1.35893 -0.07822,-0.0243 -0.142645,-1.204101 -0.142645,-2.621791 v -2.57526 l 4.699495,0.2707 4.702371,0.27353 -3.989472,-0.54703 C 51.656359,94.849589 50.62421,94.37566 53.180833,93.866313 l 1.996175,-0.398757 -1.853611,-0.07578 c -1.018533,-0.04134 -1.850694,-0.365122 -1.850694,-0.718734 0,-0.434662 0.877184,-0.532649 2.706197,-0.305552 1.488692,0.18479 5.269709,0.458975 8.403759,0.608186 l 5.700479,0.2707 -6.270815,-0.733283 c -3.897685,-0.455531 -5.582555,-0.710468 -5.103925,-0.768214 z m 53.419673,0.02431 c 0.16453,9.42e-4 0.57925,0.339997 1.24251,0.963216 2.95489,2.77594 3.91568,9.371311 1.95253,13.402881 -1.22103,2.50756 -2.39708,2.56562 -1.3531,0.0668 1.34872,-3.2279 1.09127,-8.256891 -0.58197,-11.403831 -1.11506,-2.096914 -1.53399,-3.030628 -1.25997,-3.029169 z m -0.93991,0.256112 1.2425,2.889484 c 1.47512,3.4289 1.63661,8.230351 0.38134,11.357271 -0.76749,1.91156 -1.09695,2.15751 -2.99137,2.24646 -1.17098,0.0551 -3.38056,0.26056 -4.90896,0.45682 -2.31137,0.29664 -2.7252,0.21559 -2.45596,-0.48593 1.56329,-4.07388 1.10128,-7.50606 -1.620805,-12.026561 -1.097962,-1.82334 -1.917237,-3.393279 -1.82156,-3.488957 0.09564,-0.09564 2.874505,-0.348101 6.174785,-0.561583 z M 48.030224,102.61104 c 0.561624,-0.0446 1.01371,0.1467 1.347263,0.57034 0.733446,0.93144 15.183111,3.76752 34.004916,6.67529 6.111394,0.94412 11.49534,1.80959 11.965459,1.92343 1.125394,0.27272 -2.088447,0.23098 -4.27464,-0.0555 -11.024045,-1.44382 -42.535352,-7.25465 -44.105093,-8.13309 -0.631202,-0.35337 -0.529851,-0.54051 0.462663,-0.8555 0.211536,-0.0669 0.412252,-0.11023 0.599432,-0.12522 z m -9.087561,1.83907 c 0.679467,0.008 1.543683,0.0523 2.680018,0.1163 l 4.681988,0.26463 -1.38803,2.04273 c -2.609506,3.84027 -3.062525,9.33649 -1.146466,13.93545 0.456139,1.0948 -0.478224,1.16633 -6.256267,0.48013 -2.446073,-0.29056 -2.958297,-0.57451 -3.657743,-2.03982 -1.962215,-4.11117 -1.22881,-10.44276 1.545183,-13.33889 1.120734,-1.17018 1.502916,-1.48485 3.541317,-1.46078 z m 10.082751,1.03587 c 0.296231,0.008 0.02431,0.86467 -1.035916,2.57239 -1.514506,2.4363 -1.789583,3.43166 -1.789583,6.49483 0,2.22416 0.358638,4.30543 0.928244,5.40655 0.509307,0.98486 0.925367,1.93158 0.925367,2.10386 0,0.17222 -0.271511,0.31446 -0.60235,0.31446 -0.331081,0 -1.128514,-1.19007 -1.772117,-2.64509 -1.674171,-3.7847 -1.277318,-8.48849 0.986437,-11.70063 1.201417,-1.70472 2.063809,-2.55237 2.359918,-2.54617 z m 2.031107,0.38701 c 1.209806,0.0365 7.869124,1.54587 8.179661,1.85649 0.162906,0.16291 -0.165744,1.15509 -0.733283,2.20281 -1.251222,2.31079 -1.400391,9.70384 -0.238687,11.82284 l 0.750749,1.37057 -4.37356,-0.36958 c -2.837779,-0.2399 -4.248178,-0.17182 -4.021446,0.19492 0.192085,0.31082 0.20951,0.56746 0.04052,0.56746 -0.16858,0 -0.880749,-1.092 -1.582991,-2.42395 -0.970267,-1.84032 -1.27744,-3.37934 -1.27744,-6.4105 0,-3.03112 0.307173,-4.57014 1.27744,-6.41046 0.702242,-1.33199 1.593366,-2.41106 1.978709,-2.40065 z m 137.474569,0.66054 c 0.13494,0.13495 -6.09519,0.99082 -13.84526,1.90305 -7.7501,0.91232 -13.68063,1.74112 -13.17886,1.84198 0.50188,0.10091 7.14576,-0.46964 14.76477,-1.26872 7.61905,-0.79914 13.97659,-1.3294 14.12747,-1.17853 0.43558,0.43559 -1.20353,0.91183 -5.9827,1.73723 l -4.44922,0.76821 5.13011,-0.3173 c 7.59401,-0.46866 5.44113,0.60972 -3.70427,1.85653 -9.45349,1.28874 -8.59811,1.73005 1.15814,0.59651 3.9066,-0.45387 7.13277,-0.78284 7.16704,-0.7304 0.0324,0.0523 0.21114,1.41161 0.39269,3.02337 l 0.32865,2.93026 -5.2349,0.937 c -2.88025,0.51429 -10.11076,1.79748 -16.06548,2.85459 -14.8434,2.63491 -11.9456,2.50654 5.63065,-0.25044 7.99248,-1.25361 14.9304,-2.27843 15.41945,-2.27843 1.05784,0 1.19797,1.08759 0.1775,1.37928 -3.22466,0.92193 -9.00547,1.91168 -10.3999,1.78088 -0.94024,-0.0883 -1.19716,-0.0284 -0.57034,0.12805 0.64616,0.16331 -1.57334,0.88054 -5.12722,1.65573 -9.88074,2.15524 -30.50388,5.97126 -31.13285,5.76155 -0.31366,-0.10455 7.3323,-1.72328 16.9908,-3.59659 9.65847,-1.87339 17.04726,-3.47891 16.42047,-3.56754 -0.62678,-0.0883 -4.47203,0.48909 -8.54632,1.28036 -4.07424,0.79123 -12.92097,2.4599 -19.65919,3.7101 -6.73818,1.25025 -12.69582,2.2783 -13.23703,2.28426 -1.06809,0.0122 -2.51698,-1.88108 -2.81678,-3.67809 -0.17547,-1.0518 0.56061,-1.21174 11.49404,-2.50835 6.42481,-0.76186 11.74764,-1.54498 11.82869,-1.7401 0.081,-0.19533 1.23724,-0.30353 2.56651,-0.24153 l 2.4152,0.11347 -2.27843,-0.40739 c -1.25361,-0.22329 -2.55893,-0.20424 -2.90116,0.0405 -0.34242,0.24477 -0.77048,0.29745 -0.95154,0.11631 -0.29624,-0.29664 -18.2411,1.68844 -21.36146,2.36279 -0.85631,0.1852 -1.28323,0.008 -1.28323,-0.52957 0,-0.57645 1.34309,-0.99981 4.70238,-1.47823 13.41605,-1.91087 29.63406,-4.47001 28.63324,-4.51904 -1.50623,-0.0738 -20.14228,2.03888 -27.30637,3.09612 -3.10828,0.45865 -5.77435,0.71172 -5.9245,0.56158 -0.42141,-0.42137 3.15829,-7.39138 4.29791,-8.36879 0.75144,-0.64461 7.56807,-1.56653 26.53811,-3.58791 14.03997,-1.49611 25.63799,-2.60837 25.77286,-2.47339 z m -126.198789,1.5975 c 0.408401,0 0.497757,0.37971 0.23585,0.99811 -2.237577,5.27951 -2.391893,9.12788 -0.509266,12.76856 0.715493,1.38389 0.721652,1.62084 0.03242,1.62084 -1.197122,0 -2.642534,-4.1596 -2.627621,-7.5628 0.01216,-3.14037 1.730418,-7.82471 2.869144,-7.82471 z m 2.487975,0.57037 c 1.00836,0 7.115701,1.12605 9.56769,1.76337 1.969753,0.51198 2.076858,0.64827 1.565485,1.99329 -0.820368,2.15775 -0.662973,7.97404 0.276375,10.2224 0.824462,1.97336 0.822719,1.9762 -0.7129,1.9409 -0.845939,-0.0203 -3.388905,-0.22126 -5.650999,-0.44811 -3.360053,-0.33717 -4.140465,-0.26057 -4.271723,0.41026 -0.494839,2.52886 -3.296876,-4.92197 -3.296876,-8.76746 0,-2.89164 1.498013,-7.11465 2.522867,-7.11465 z m 66.624684,0.96026 c 0.89846,-0.0203 1.66205,0.008 2.20281,0.10172 l 2.11255,0.3639 -1.90596,2.8488 c -3.53735,5.28621 -4.55843,10.34676 -2.89241,14.33405 0.47008,1.12515 0.85551,2.14255 0.85551,2.261 0,0.11833 -0.1929,0.18115 -0.42777,0.1394 -2.47918,-0.43968 -9.76274,-1.02643 -10.51632,-0.84679 -2.41735,0.57638 -3.75958,-10.16566 -1.86233,-14.90734 0.78584,-1.96412 1.33008,-2.49502 3.03501,-2.95351 2.78782,-0.74966 6.70354,-1.27903 9.39891,-1.34147 z m -52.814408,1.96125 c 0.396325,-0.15319 0.572362,1.29725 0.361069,4.09422 -0.260164,3.44009 -0.111441,4.63235 0.864217,6.83819 1.240117,2.80346 0.764973,3.63591 -0.753667,1.31821 -1.912128,-2.9183 -2.403928,-6.52664 -1.38803,-10.18463 0.362285,-1.3041 0.6789,-1.97397 0.916614,-2.06599 z m 38.998298,0.46849 c 0.0834,0.0162 0.16209,0.06 0.23868,0.13657 0.12157,0.12157 -0.1398,1.23757 -0.58196,2.47922 -1.03604,2.9089 -1.02777,7.90296 0.0162,10.8044 0.45164,1.25361 0.82337,2.34266 0.82932,2.42103 0.004,0.0782 -0.26137,0.14265 -0.59072,0.14265 -0.80732,0 -2.19761,-3.44601 -2.61307,-6.47737 -0.45869,-3.34627 1.4508,-9.73084 2.70036,-9.50662 z m -36.455049,0.38701 c 0.118331,-0.0916 2.907318,0.49743 6.198075,1.30653 l 5.98273,1.46949 -0.162907,2.27846 c -0.08956,1.25361 0.210725,3.69194 0.666377,5.41531 0.455613,1.72325 0.75934,3.19808 0.678008,3.27941 -0.08145,0.0815 -2.550463,-0.1005 -5.488051,-0.40442 -4.033158,-0.41732 -5.44372,-0.38621 -5.76155,0.12805 -0.520451,0.84209 -2.041886,-2.63159 -2.703319,-6.17185 -0.408362,-2.18612 -0.03242,-6.81741 0.590719,-7.3009 z m 32.840949,0.94571 -0.56742,2.05437 c -0.56624,2.05076 -0.29704,8.89154 0.44524,11.31654 0.3327,1.08755 0.18033,1.28036 -1.00395,1.28036 -0.76781,0 -1.50445,-0.1078 -1.63826,-0.24153 -0.13373,-0.13372 -2.6769,-0.37363 -5.65095,-0.53252 l -5.40661,-0.28813 -0.963175,-3.02917 c -0.52929,-1.66631 -0.9787,-3.95653 -0.998071,-5.0865 l -0.03647,-2.05437 3.579166,-0.33473 c 1.96761,-0.18357 5.5268,-0.95159 7.90905,-1.70809 z m -18.006346,2.68581 c 0.596879,0 0.835647,0.81437 0.887518,3.04084 0.04052,1.67337 0.463434,3.98283 0.942793,5.13015 0.68145,1.63089 0.71079,2.08638 0.136565,2.08638 -1.131107,0 -2.15746,-2.76645 -2.485016,-6.69563 -0.237471,-2.84823 -0.134135,-3.56174 0.517938,-3.56174 z m 95.991256,5.85759 c 0.46408,0.46404 -28.01165,6.52495 -42.23405,8.98865 -5.32791,0.92297 -10.32643,1.64973 -11.10996,1.615 -0.78349,-0.0365 -0.14427,-0.29785 1.42296,-0.58197 1.56703,-0.28407 7.8502,-1.42069 13.96159,-2.52578 6.1114,-1.10521 17.10464,-3.29149 24.42852,-4.85953 7.32391,-1.56803 13.41265,-2.75466 13.53094,-2.63637 z m -170.091448,5.02539 c 0.778709,-0.0203 1.901064,0.0673 3.640235,0.21235 2.662188,0.22166 4.839181,0.47542 4.839181,0.5645 0,0.0892 -0.692556,1.4035 -1.539347,2.91862 -1.929674,3.45252 -2.509695,10.99459 -1.146506,14.91026 l 0.843872,2.42103 -2.63925,-0.0815 c -1.451978,-0.0445 -3.659242,-0.23707 -4.903169,-0.42777 -2.159689,-0.33068 -2.305738,-0.48739 -3.2416,-3.48021 -0.538971,-1.72373 -0.996204,-4.26998 -1.015534,-5.65971 -0.04417,-3.2072 1.428392,-8.46592 2.860391,-10.21952 0.659813,-0.80801 1.003821,-1.12726 2.301727,-1.15814 z m 13.245775,0.93408 4.844976,0.37241 c 2.665875,0.20506 4.931454,0.45607 5.034102,0.55871 0.102526,0.10252 -0.521666,1.70026 -1.38803,3.55003 -1.395,2.97843 -1.57594,4.01521 -1.565526,9.06143 0.0081,3.69482 0.283264,6.17902 0.779845,7.06516 l 0.765297,1.36473 -4.28623,-0.38701 c -3.256514,-0.29501 -4.342153,-0.21234 -4.527794,0.34324 -0.13454,0.402 -0.825394,-1.01573 -1.536429,-3.15139 -1.681506,-5.05075 -1.479534,-11.18586 0.520896,-15.71045 z m -1.507292,0.23261 c 0.469349,0.0414 0.16939,0.73944 -1.120329,2.81386 -1.756677,2.82583 -1.853611,3.27261 -1.853611,8.44741 4.1e-5,4.15842 0.24274,5.9059 1.012657,7.31545 0.833782,1.52605 0.866687,1.85356 0.189247,1.85356 -1.3918,0 -2.914572,-4.99682 -2.889528,-9.48619 0.02026,-3.37241 0.316088,-4.64932 1.725555,-7.40565 0.936512,-1.83116 2.147573,-3.41375 2.688732,-3.51806 0.09766,-0.0203 0.180331,-0.0243 0.247196,-0.0203 z m 15.34087,0.7071 c 0.115898,0.0203 0.162906,0.096 0.110631,0.21518 -0.104553,0.23909 -0.931527,1.91432 -1.836105,3.72465 -2.217841,4.4386 -2.610357,9.6735 -1.067972,14.21771 0.800189,2.3572 0.917709,3.27653 0.416142,3.27653 -1.797444,0 -3.40779,-8.07284 -2.499605,-12.53287 0.717033,-3.52147 3.08611,-8.31846 4.347381,-8.8024 0.22815,-0.0875 0.413629,-0.11995 0.529569,-0.0989 z m 3.104873,0.47434 c 1.121544,-0.0457 2.74668,0.0122 5.068993,0.1629 3.452082,0.22572 6.27665,0.47697 6.27665,0.56163 0,0.0847 -0.68818,1.65516 -1.527716,3.48895 -2.277818,4.97543 -2.469537,12.60348 -0.44228,17.53784 0.468012,1.13833 -0.104147,1.13484 -8.662748,-0.0162 v 0.003 c -1.993379,-0.26827 -2.401659,-0.15359 -2.586854,0.73328 -0.207888,0.99564 -0.254896,0.99219 -0.84679,-0.0843 -1.271159,-2.31149 -2.458838,-7.42226 -2.458838,-10.58614 0,-3.6342 1.829458,-10.26786 3.128092,-11.34564 0.312441,-0.25935 0.929947,-0.40812 2.051491,-0.45396 z m 14.479571,1.01553 c 0.53974,0 0.249224,1.01367 -0.968971,3.37549 -2.763943,5.35919 -2.796079,11.67806 -0.09037,18.13727 0.603849,1.44144 -0.932662,0.66022 -1.728473,-0.87876 -1.441805,-2.78773 -2.128162,-8.13071 -1.484031,-11.55223 0.708117,-3.76128 3.21064,-9.08177 4.271722,-9.08177 z m 3.864334,0.3173 c 3.446247,-0.0681 9.86457,0.32784 10.63854,0.80606 0.423354,0.26179 0.146291,1.43087 -0.858422,3.62569 -2.285193,4.99151 -2.51156,12.98696 -0.515061,18.18967 0.252871,0.65884 0.121573,0.96788 -0.389842,0.91662 -0.425299,-0.0426 -3.141182,-0.37485 -6.035086,-0.73908 -3.64291,-0.45865 -5.323321,-0.47753 -5.461873,-0.064 -0.109821,0.32865 -0.69053,-0.81368 -1.289071,-2.53741 -1.512317,-4.35566 -1.497688,-12.30032 0.02837,-16.41756 0.6171,-1.66388 1.402213,-3.2589 1.745938,-3.54424 0.169391,-0.14021 0.987126,-0.21275 2.135861,-0.23584 z m 14.97425,0.82349 c 0.554896,0 0.289341,0.79869 -0.875847,2.63637 -3.00413,4.73694 -3.658715,12.93277 -1.454977,18.20714 0.957463,2.29156 0.932216,2.6904 -0.125218,2.03694 -2.344196,-1.44881 -3.351219,-11.77358 -1.614965,-16.55144 1.245061,-3.4261 3.112653,-6.32901 4.070925,-6.32901 z m 1.96416,0.29096 c 0.468418,0.003 3.967468,0.21722 7.778148,0.4743 l 6.928449,0.4685 -1.71101,3.65774 c -2.52344,5.39233 -2.83665,13.68097 -0.724585,19.18486 0.21033,0.54776 0.16372,0.96346 -0.10495,0.92533 -7.842256,-1.11417 -13.047815,-1.49282 -13.367996,-0.97481 -0.207078,0.33473 -0.854611,-0.76829 -1.440387,-2.45013 -1.64248,-4.71598 -1.454975,-13.38404 0.387005,-17.87253 0.836619,-2.03855 1.747397,-3.41921 2.255164,-3.41326 z m 17.700837,1.42001 c 0.34162,0.064 -0.10739,1.45988 -1.35598,3.98071 -1.68847,3.40861 -1.81694,4.0813 -1.7925,9.39021 0.0203,4.02736 0.30555,6.34853 0.96901,7.8538 0.76226,1.72932 0.79407,2.13586 0.16291,2.13586 -1.22334,0 -2.79515,-5.55006 -2.82258,-9.97221 -0.0284,-4.53881 1.36598,-9.50685 3.37257,-12.01781 0.77227,-0.96634 1.26172,-1.40898 1.46657,-1.37056 z m 1.41129,0.28245 5.68593,0.15116 c 3.12647,0.0831 6.50808,0.28366 7.51624,0.44811 l 1.83323,0.29988 -1.72556,2.80511 c -3.74094,6.07979 -5.08832,14.36911 -3.10779,19.10921 0.97075,2.32336 1.076,2.29613 -5.92162,1.38803 -3.03975,-0.39471 -4.35443,-0.3704 -4.63542,0.0843 -0.21559,0.34891 -0.86916,-0.74208 -1.45494,-2.42395 -0.78037,-2.24066 -1.06517,-4.65687 -1.05922,-9.041 0.004,-5.09728 0.2168,-6.48912 1.43751,-9.40182 z m 69.0981,1.42876 c 0.41035,-0.003 0.60734,0.21721 0.4394,0.48884 -0.16776,0.27192 -4.02046,1.08961 -8.56378,1.81868 -4.54328,0.72902 -8.15454,1.4335 -8.02255,1.56552 0.13211,0.13211 3.84294,-0.21842 8.24368,-0.77988 4.4008,-0.56142 8.10105,-0.91069 8.22335,-0.77693 0.12239,0.13373 0.3323,1.81909 0.46558,3.74503 l 0.24153,3.50059 -18.26533,3.75375 c -10.04661,2.06482 -17.24056,3.63136 -15.9869,3.48025 6.29561,-0.75874 15.16187,-2.26668 23.63699,-4.01858 5.17743,-1.07023 9.86015,-1.94365 10.40865,-1.94961 1.70788,-0.0122 1.09415,1.58324 -0.85259,2.21152 -4.14334,1.33714 -28.27822,7.09784 -39.74613,9.4862 -6.73821,1.40331 -12.89296,2.68164 -13.67646,2.84004 -0.96426,0.19492 -1.14885,0.12969 -0.57034,-0.19775 0.47013,-0.26624 8.72748,-2.24673 18.34974,-4.4027 9.62228,-2.15587 17.40615,-4.01059 17.29636,-4.12036 -0.10981,-0.10982 -8.42843,1.50259 -18.48358,3.58204 -10.0552,2.07941 -18.52076,3.63031 -18.81533,3.44824 -0.64855,-0.40079 -2.60189,-5.36835 -2.24933,-5.72087 0.13738,-0.13737 4.34021,-1.005 9.34072,-1.92635 10.77798,-1.98585 10.37715,-2.25407 -0.90498,-0.60522 -5.69761,0.83269 -8.27279,1.00394 -8.69764,0.57908 -0.3319,-0.33189 -0.45493,-0.75273 -0.27354,-0.93408 0.18155,-0.18154 7.60097,-1.56686 16.48738,-3.08157 8.88643,-1.51479 15.72296,-2.78137 15.19251,-2.81387 -0.84011,-0.0518 -25.29658,3.40479 -29.72736,4.20186 -1.60601,0.28894 -1.62283,0.26178 -1.24255,-1.84194 0.21235,-1.17438 1.20223,-3.80302 2.19989,-5.84012 1.71583,-3.50347 1.93531,-3.71967 4.09127,-3.98947 1.25365,-0.15684 3.55282,0.0365 5.10976,0.42776 1.55701,0.39187 5.7906,0.74403 9.40478,0.78277 l 6.5705,0.0697 -6.2679,1.00099 c -3.44747,0.54955 -5.62847,1.02554 -4.84494,1.05921 0.7835,0.0324 5.52801,-0.57738 10.5425,-1.35893 7.64482,-1.19148 28.41811,-3.66455 30.9466,-3.68392 z m 4.60054,11.97413 c 0.37038,-0.008 0.85489,0.10496 1.44622,0.33189 2.67346,1.02595 0.14629,1.88805 -21.60881,7.37947 -7.83509,1.97778 -18.79076,4.51013 -24.34697,5.62774 -5.55618,1.11753 -10.81166,2.00538 -11.6803,1.97288 -1.45307,-0.0539 -1.42183,-0.0977 0.41319,-0.54125 1.09695,-0.26502 7.63708,-1.66906 14.53196,-3.11938 6.89493,-1.45031 18.81897,-4.2188 26.49743,-6.15439 11.73164,-2.95736 13.9466,-3.6797 13.88014,-4.51616 -0.0511,-0.64076 0.25003,-0.97104 0.86714,-0.98064 z m 17.35163,3.11942 1.35893,2.61599 c 3.18094,6.11549 3.81344,19.39538 1.30654,27.46056 -0.66038,2.12447 -1.42081,3.72668 -1.6877,3.56171 -0.26706,-0.16494 -2.97479,0.21194 -6.01766,0.83803 -3.04296,0.6261 -5.6061,1.13779 -5.69756,1.13779 -0.0916,0 0.23057,-1.21754 0.71581,-2.70619 0.99876,-3.06427 1.33515,-17.38571 0.51506,-21.87943 -0.48151,-2.63864 -0.47531,-2.65169 1.28328,-3.03793 2.23154,-0.4901 2.34459,-2.13594 0.34647,-5.08066 -1.67263,-2.46476 -1.56069,-2.54345 3.93417,-2.75563 z m -168.982789,4.02144 c 1.185125,-0.0162 1.878776,0.0689 2.066037,0.25612 0.374443,0.37444 -0.469592,0.56741 -2.493769,0.56741 -1.681911,0 -2.887259,0.16818 -2.680018,0.37526 0.207077,0.20707 11.825732,1.71801 25.819419,3.35798 23.746898,2.78291 25.809289,2.9416 30.91751,2.38027 3.242978,-0.35621 6.634032,-0.40557 8.322264,-0.12198 2.831984,0.47534 2.807265,0.48382 -3.989432,1.47824 -3.760876,0.55023 -7.991547,0.98817 -9.401865,0.97476 -2.538266,-0.0243 -57.678021,-7.44192 -59.271426,-7.97307 -0.454802,-0.15155 2.106076,-0.57479 5.691766,-0.93987 2.157663,-0.21964 3.834427,-0.33878 5.019514,-0.35499 z m 9.753938,0.937 c 0.325409,-0.0284 0.84367,0.004 1.481155,0.0989 1.253612,0.18723 10.485723,1.26294 20.514658,2.39194 10.028976,1.12895 18.341271,2.16013 18.471962,2.29005 0.546913,0.54428 -5.812205,-0.008 -22.560313,-1.96416 -9.769703,-1.14027 -17.974083,-2.29565 -18.233356,-2.56652 -0.131703,-0.13778 3.65e-4,-0.22287 0.325814,-0.25043 z m 143.611531,4.87407 c 0.71358,-0.0122 0.90539,0.20506 1.08247,0.63433 0.21114,0.51206 0.37688,5.41875 0.36958,10.90336 -0.0122,9.39449 -0.10171,10.21766 -1.55677,14.24388 -0.84951,2.35052 -1.45563,3.57094 -1.3473,2.70908 0.1086,-0.86187 0.12198,-1.5684 0.0284,-1.5684 -0.0928,0 -2.01936,0.38862 -4.28044,0.86421 -2.261,0.47563 -4.19821,0.77766 -4.30369,0.67217 -0.10537,-0.10536 0.1856,-1.96849 0.64599,-4.14074 0.98518,-4.65054 1.10939,-14.05318 0.24719,-18.71637 -0.33513,-1.81198 -0.47582,-3.4293 -0.31122,-3.59371 0.16453,-0.16453 2.51006,-0.74868 5.2116,-1.3007 2.26456,-0.46275 3.4999,-0.69734 4.21348,-0.70711 z m -166.797494,1.53931 c 0.170201,-0.1702 14.637129,1.69273 32.148427,4.13788 l 31.837041,4.44629 1.812844,4.55398 c 1.818315,4.56815 3.995834,13.74864 3.401671,14.3428 -0.174659,0.17466 -9.961342,-1.40513 -21.748494,-3.51222 -11.787113,-2.10717 -21.530071,-3.73357 -21.649535,-3.6141 -0.119546,0.11955 9.320291,2.10968 20.977362,4.42304 11.65699,2.31324 21.516777,4.32052 21.908523,4.46085 0.391869,0.14021 0.712941,1.01805 0.712941,1.94961 0,1.5455 -0.138593,1.66538 -1.568444,1.37348 -5.093186,-1.04005 -21.948521,-3.79523 -22.126786,-3.61701 -0.117115,0.11711 4.974044,1.30321 11.313629,2.63637 6.339584,1.33312 11.709103,2.60299 11.933445,2.82258 0.417397,0.40865 -0.708361,5.97463 -1.777912,8.78785 -0.327435,0.86109 -0.993975,1.56553 -1.481155,1.56553 -0.487261,0 -10.261787,-2.45702 -21.719357,-5.45896 -11.457653,-3.00195 -20.934447,-5.35635 -21.058856,-5.23195 -0.124409,0.12442 9.30704,2.91831 20.957018,6.20675 11.649898,3.28845 21.283724,6.28233 21.408012,6.65495 0.322166,0.96621 -0.193705,0.87808 -11.267108,-1.95258 -13.833699,-3.53621 -29.541312,-8.11891 -43.1623,-12.59102 -11.303296,-3.71123 -11.540605,-3.81931 -11.540605,-5.36 0,-0.86507 0.21964,-1.71044 0.488882,-1.87692 0.269485,-0.16654 10.07951,1.8702 21.797934,4.52489 11.718384,2.65473 21.560179,4.79885 21.873592,4.76639 0.313251,-0.0324 -9.301164,-2.54162 -21.367285,-5.57825 -12.066079,-3.03667 -21.890287,-5.78696 -21.829947,-6.11075 0.06038,-0.32379 0.291368,-3.21028 0.512143,-6.41338 l 0.401593,-5.8227 1.484073,0.28813 c 4.564103,0.88577 24.121502,3.8134 24.297498,3.63736 0.114683,-0.11469 -5.677178,-1.33434 -12.870402,-2.712 -12.78761,-2.44915 -13.076993,-2.53514 -13.076993,-3.89055 0,-1.30378 0.14305,-1.36744 2.420988,-1.05046 1.331986,0.1856 3.831267,0.46598 5.554999,0.62273 2.445627,0.22248 1.88295,-8.6e-4 -2.563634,-1.01845 -4.9428,-1.13078 -5.72293,-1.46924 -5.880852,-2.55196 -0.126435,-0.86827 0.114684,-1.24839 0.791476,-1.24839 0.535282,0 9.330706,1.16179 19.545687,2.58111 10.214982,1.41926 18.952415,2.50717 19.414754,2.4181 0.462379,-0.0891 -8.333085,-1.60844 -19.54281,-3.37545 -11.209685,-1.76705 -20.537068,-3.36876 -20.727086,-3.55882 -0.190057,-0.19006 -0.205051,-0.48475 -0.03647,-0.65471 z m 152.690374,1.3822 c 1.73698,0.40835 2.04716,17.38862 0.2241,23.26454 -0.50635,1.6319 -1.2128,3.14803 -1.57136,3.36961 -0.43397,0.26827 -0.52916,0.079 -0.28205,-0.5645 2.25736,-5.88251 3.13738,-18.32887 1.65281,-23.40418 -0.36147,-1.23598 -0.53816,-2.36884 -0.38984,-2.51708 0.12847,-0.12846 0.25084,-0.17546 0.36675,-0.14831 z m -69.68591,0.0668 c 0.716145,0 2.79385,5.0598 4.16985,10.15836 0.90531,3.35414 1.18269,6.10075 1.19015,11.78213 0.009,6.78734 -0.27638,9.04927 -1.9176,15.24199 -0.31163,1.17525 -0.80639,2.13583 -1.09994,2.13583 -0.31487,0 -0.2861,-0.64102 0.0701,-1.56549 1.25754,-3.26534 2.21731,-10.14641 2.21731,-15.89378 0,-6.8623 -1.11073,-12.52785 -3.488965,-17.80558 -1.838334,-4.07988 -1.830716,-4.05346 -1.140672,-4.05346 z m -2.065997,0.22694 c 0.777412,-0.0162 1.126568,0.69887 2.039819,3.62864 2.900758,9.30607 3.563448,17.71943 2.150418,27.29178 -0.876385,5.93666 -2.493577,12.01595 -2.584026,9.71321 -0.04377,-1.11931 -0.209915,-1.10817 -8.197127,0.51798 -4.821228,0.98186 -5.142422,0.98162 -4.763481,-0.008 1.122354,-2.92482 1.64637,-8.51958 1.382194,-14.7444 -0.316492,-7.45853 -1.55507,-12.42796 -5.025348,-20.16258 -0.932418,-2.07827 -1.624853,-3.84189 -1.539347,-3.91669 0.0855,-0.075 3.488514,-0.55822 7.562803,-1.07669 4.074249,-0.51846 7.950253,-1.0582 8.613227,-1.19886 0.131299,-0.0284 0.249629,-0.0442 0.36107,-0.0466 z m 68.839117,0.60526 c 0.33838,0.0284 0.55324,0.0965 0.66346,0.20667 1.13009,1.13014 1.26318,14.27724 0.20384,20.14512 -0.52783,2.92324 -1.46085,6.34117 -2.07475,7.59478 l -1.11742,2.27843 0.28246,-1.87688 0.28205,-1.87687 -2.12715,0.37525 c -1.17009,0.20505 -3.87581,0.72907 -6.01183,1.16397 -2.13594,0.43479 -4.08766,0.78856 -4.33863,0.78856 -0.25084,0 -0.0681,-1.60289 0.40739,-3.56169 0.94121,-3.87771 1.25224,-15.39813 0.54416,-20.11603 l -0.43069,-2.87785 6.88188,-1.32401 c 3.69729,-0.71237 5.8197,-1.00427 6.83535,-0.91953 z m -60.77004,0.0405 c 1.05784,0.0997 5.50106,2.65806 8.87805,5.19413 3.47729,2.61162 3.86458,2.76103 6.94882,2.66836 3.74811,-0.11267 3.61042,-0.3007 4.15821,5.79651 0.54611,6.07772 -1.52249,20.97376 -3.15723,22.73202 -0.26057,0.28002 -0.32986,-0.0405 -0.15439,-0.71003 0.36026,-1.37794 1.01557,-1.42125 -8.85183,0.55579 -2.9335,0.58777 -5.52672,1.07085 -5.76451,1.07085 -0.23788,0 -0.0689,-1.47446 0.37525,-3.27653 0.44439,-1.8021 0.95584,-6.48235 1.13488,-10.39993 0.35296,-7.71777 -0.56049,-14.55653 -2.69457,-20.17134 -0.60798,-1.59949 -1.10557,-3.10317 -1.10574,-3.34344 -8e-5,-0.0932 0.0815,-0.13049 0.23261,-0.1163 z m 40.01965,3.95742 c 0.4012,-0.0284 0.64572,-0.0162 0.69548,0.0324 0.77895,0.7787 0.31244,17.6385 -0.59947,21.63499 -0.92181,4.03988 -3.09081,9.87802 -2.35117,6.32896 0.31528,-1.51369 0.23383,-1.62303 -1.01845,-1.31817 -2.97937,0.72551 -11.45104,2.19053 -11.63081,2.01073 -0.10536,-0.10496 0.19492,-1.7275 0.66634,-3.60535 0.76991,-3.06714 1.1414,-15.46171 0.63144,-21.02101 l -0.15115,-1.65281 7.0477,-1.36765 c 2.90643,-0.56507 5.50702,-0.96272 6.71022,-1.04171 z m 3.23869,0.64892 c 0.21639,0.10333 0.48236,2.02114 0.74495,5.85759 0.35824,5.23736 -0.3327,11.57732 -1.78958,16.44377 -0.49257,1.64535 -1.11381,2.99137 -1.3822,2.99137 -0.26827,0 0.0559,-1.60294 0.72166,-3.56171 1.04637,-3.07889 1.21171,-4.89003 1.22212,-13.35928 0.008,-5.63901 0.20505,-8.50455 0.48305,-8.37174 z m -21.92886,2.42974 c 0.0895,-0.0539 0.21558,0.008 0.38132,0.17182 0.16048,0.16047 0.50234,2.44652 0.7595,5.08066 0.54562,5.58964 -0.0567,13.46125 -1.39677,18.23624 -0.51875,1.84886 -1.19291,3.36381 -1.49858,3.36381 -0.30556,0 -0.38134,-0.44961 -0.16859,-0.99806 2.09097,-5.39298 3.11667,-16.06524 2.12419,-22.08022 -0.39997,-2.42525 -0.46979,-3.61204 -0.20059,-3.77413 z m -113.988891,17.922 c 0.510847,-0.0162 0.671079,0.33879 0.78564,1.30946 0.166554,1.40963 0.666864,1.71125 5.595725,3.36382 3.299185,1.10606 4.968088,1.90467 4.2746,2.04561 -0.625895,0.12725 1.940535,0.95658 5.700479,1.84199 3.759863,0.88545 11.45137,2.96774 17.092644,4.62962 5.641314,1.66194 15.512814,4.35667 21.93762,5.98562 6.424806,1.62889 11.751451,3.02925 11.837403,3.11358 0.08591,0.0843 -0.171012,0.41675 -0.570336,0.73912 -1.393339,1.12478 -22.187167,-4.25353 -45.071186,-11.65703 -9.814806,-3.1753 -13.290514,-4.52058 -12.538672,-4.85365 0.680885,-0.3015 0.393084,-0.35986 -0.838038,-0.17183 -1.156151,0.1767 -1.746829,0.0717 -1.533511,-0.27353 0.196137,-0.31771 -0.348507,-0.56142 -1.254179,-0.56159 -1.57667,-2.8e-4 -7.4614928,-1.97327 -8.2990038,-2.78184 -0.6030787,-0.58226 0.756827,-2.16164 2.2406158,-2.60145 0.259354,-0.077 0.469917,-0.12319 0.640199,-0.12806 z"
       sodipodi:nodetypes="ccsssssscccccsscccssssssssscssssscssssssssscccssccsssssssssssssccscccssssccsccccccsscsssssscsssccssscssscccsssscccsscsscccccssssscsscsscsssscccssssccsssscccscsssssscccccccsscccsssssssssccssscssccsssccsssssccssssssscssssssscsssccccssssssssssscccssccccssscssssscsssssscccsssssssssssssscscsssssssscssscccsscssssssssssssssscssssscccsssssssccsssccccccccscssssssssssssscsscccsscssscsssccccssccsssssssssscsssssssccsscccssssccssscssssssscscsssssscsssssscccscsssssssssscsscccccsssscccssssssccccscsssssssssssssscssssscccssssccsscsssscccssssssssccsssssssscssssscsccssssscsssssssssssscccsssssscsssssssscssssscssccsssssscsssssssssssssssssscssssssscsssccsssssccssscccccssscccsscssssssscssssssssssscccssssssscsscssscssssssssscssssssssss" />
  </g>
</svg>
